<svg width="44" height="44" viewBox="0 0 44 44" fill="none" xmlns="http://www.w3.org/2000/svg">
<path d="M32 3.65685C32.5253 3.13157 33.1489 2.71489 33.8352 2.4306C34.5215 2.14632 35.2571 2 36 2C36.7429 2 37.4785 2.14632 38.1648 2.4306C38.8511 2.71489 39.4747 3.13157 40 3.65685C40.5253 4.18214 40.942 4.80575 41.2263 5.49207C41.5105 6.17839 41.6569 6.91399 41.6569 7.65685C41.6569 8.39972 41.5105 9.13532 41.2263 9.82164C40.942 10.508 40.5253 11.1316 40 11.6569L13 38.6569L2 41.6569L5 30.6569L32 3.65685Z" stroke="#7E7E7E" stroke-width="3" stroke-linecap="round" stroke-linejoin="round"/>
</svg>
